<svg xmlns="http://www.w3.org/2000/svg" width="97.119" height="84.258" viewBox="0 0 97.119 84.258">
  <g id="Grupo_16" data-name="Grupo 16" transform="translate(-2448 -3182)">
    <path id="Trazado_481" data-name="Trazado 481" d="M1313.938,424.274c.024-.011.049-.02.073-.032,3.351-1.634,4.876-5.4,3.407-8.418a5.906,5.906,0,0,0-4.725-3.2,7.073,7.073,0,0,0-4.386-10.056,7.022,7.022,0,0,0-.182-5.8,6.855,6.855,0,0,0-9.116-3.293c-.023.011-.043.026-.067.037s-.024.008-.037.014l-7.368,3.592a6.31,6.31,0,0,0-2.906,8.437c1.235,3.112,2.669,6.407,4.34,9.836,1.691,3.472,3.423,6.669,5.132,9.59a6.447,6.447,0,0,0,3.616,3.2,6.293,6.293,0,0,0,4.821-.294l7.368-3.593C1313.919,424.287,1313.927,424.279,1313.938,424.274Z" transform="translate(1160.009 2826.428)" fill="#fff"/>
    <path id="Trazado_482" data-name="Trazado 482" d="M1430.184,360.53c-1.249-3.146-2.7-6.479-4.395-9.949-1.674-3.428-3.386-6.587-5.077-9.477a6.31,6.31,0,0,0-8.437-2.906l-7.368,3.592c-.012.006-.021.015-.033.021s-.047.018-.07.03a6.855,6.855,0,0,0-3.02,9.21,7.025,7.025,0,0,0,4.46,3.717,7.073,7.073,0,0,0,5.222,9.648,5.905,5.905,0,0,0-.388,5.694c1.47,3.015,5.378,4.134,8.729,2.5.024-.012.046-.026.07-.038s.022-.007.034-.012l7.368-3.593a6.288,6.288,0,0,0,3.2-3.616A6.444,6.444,0,0,0,1430.184,360.53Z" transform="translate(1114.303 2848.762)" fill="#fff"/>
    <path id="Trazado_483" data-name="Trazado 483" d="M1313.147,366.885a6.447,6.447,0,0,1,.334.846,28.877,28.877,0,0,1,16.1-23.219c.173-.084.347-.162.521-.241v0l.037-.02.039-.018v0c.17-.088.338-.177.511-.261a28.877,28.877,0,0,1,28.208,1.615,6.469,6.469,0,0,1,4.225-10.008,38.683,38.683,0,0,0-36.45-1.358c-.193.094-.378.2-.568.295s-.362.161-.542.248h0l-.037.017h0l-.036.018h0c-.179.088-.352.183-.529.274-.194.09-.39.172-.583.266a38.682,38.682,0,0,0-21.378,29.554,6.473,6.473,0,0,1,10.153,1.989Z" transform="translate(1153.945 2851.693)" fill="#fff"/>
    <path id="Trazado_484" data-name="Trazado 484" d="M1390.467,393.65a8.956,8.956,0,0,1-11.976-4.125,9.542,9.542,0,0,1-.714-2.06,12.307,12.307,0,0,1-9.933-1.193c-.017-.014-.037-.029,0,0a16.529,16.529,0,0,0-5.857-2.515c-4.883-1.044-9.51.787-11.021,1.426a20.649,20.649,0,0,0-1.987.969c-1.434.8-5.726,3.315-7.911,7.805a16.536,16.536,0,0,0-1.626,6.163c0-.044,0-.02,0,0a12.3,12.3,0,0,1-5.177,8.561,9.588,9.588,0,0,1,1.184,1.831,8.946,8.946,0,0,1-9.053,12.818,38.477,38.477,0,0,0,45.518,8.8c.193-.094.378-.2.568-.295s.39-.172.583-.266a38.477,38.477,0,0,0,21.1-41.279A8.9,8.9,0,0,1,1390.467,393.65Zm-21.921,30.11c-10.721,5.227-21.792,4.585-24.727-1.435s3.376-15.138,14.1-20.366,21.792-4.585,24.728,1.435S1379.267,418.533,1368.546,423.761Z" transform="translate(1144.485 2830.214)" fill="#fff"/>
  </g>
</svg>
